# xmcd
#
# Track frame offsets:
#	150
#	15908
#	36494
#	51467
#	69066
#	85939
#	103712
#	118183
#	131738
#	146848
#	164093
#	181417
#	196228
#	210229
#	227373
#	245921
#	260686
#	277104
#
# Disc length: 3873 seconds
#
# Revision: 5
# Processed by: cddbd v1.5.1PL0 Copyright (c) Steve Scherf et al.
# Submitted via: audiograbber 1.83.01
#
DISCID=0e0f1f12
DTITLE=2005-03 Country Radio - 2005-03 Country Radio
DYEAR=2005
DGENRE=Country
TTITLE0=Toby Keith - Honky Tonk U
TTITLE1=Tim McGraw - Drugs or Jesus
TTITLE2=Trick Pony - It's a Heartache
TTITLE3=Darryl Worley - If Something Should Happen
TTITLE4=Travis Tritt - I See Me
TTITLE5=Big and Rich - Big Time
TTITLE6=Buddy Jewell - If She Were Any Other Woman
TTITLE7=Wrights, The - Down This Road
TTITLE8=Diamond Rio - One Believer
TTITLE9=George Canyon - My Name
TTITLE10=Aaron Lines - Waitin' on the Wonderful
TTITLE11=David Ball - Happy With the One I've Got
TTITLE12=Shelly Fairchild - Tiny Town
TTITLE13=Hanna and McEuen - Something Like a Broken Heart
TTITLE14=Bobby Pinson - Don't Ask Me How I Know
TTITLE15=Nanci Griffith ft.Jimmy Buffett - I Love This Town
TTITLE16=Jeffrey Steele - Just the Way We Do It
TTITLE17=Scooter Lee - Oh Lonesome Me
EXTD=
EXTT0=
EXTT1=
EXTT2=
EXTT3=
EXTT4=
EXTT5=
EXTT6=
EXTT7=
EXTT8=
EXTT9=
EXTT10=
EXTT11=
EXTT12=
EXTT13=
EXTT14=
EXTT15=
EXTT16=
EXTT17=
PLAYORDER=
